<svg width="413" height="103" viewBox="0 0 413 103" fill="none" xmlns="http://www.w3.org/2000/svg">
<path d="M16.0281 82H2.02237L23.3629 20.1818H40.206L61.5163 82H47.5107L32.0259 34.3082H31.543L16.0281 82ZM15.1527 57.7013H48.2351V67.9038H15.1527V57.7013ZM140.336 20.1818V82H129.047L102.152 43.092H101.7V82H88.6297V20.1818H100.1L126.783 59.0597H127.326V20.1818H140.336ZM183.877 20.1818V82H170.807V20.1818H183.877ZM214.304 82V20.1818H227.373V45.6879H253.906V20.1818H266.946V82H253.906V56.4638H227.373V82H214.304ZM354.059 30.9577V20.1818H404.829V30.9577H385.903V82H372.984V30.9577H354.059Z" fill="#F5F5F5"/>
<path d="M307.627 19.2299C305.002 21.1265 287.5 34.5927 287.5 56.4985C287.5 59.9457 288.179 63.3591 289.498 66.5439C290.817 69.7287 292.751 72.6225 295.188 75.06C297.626 77.4976 300.52 79.4311 303.705 80.7503C306.797 82.0314 310.106 82.7087 313.451 82.7468C305.305 82.5876 298.75 75.9341 298.75 67.7497C298.75 67.009 298.804 66.2808 298.907 65.5689C298.912 65.5264 298.917 65.4839 298.924 65.4413C300.181 56.9895 307.957 49.8141 311.718 46.788C312.919 45.821 314.581 45.8211 315.783 46.788C319.543 49.8142 327.319 56.9895 328.576 65.4413C328.583 65.4839 328.588 65.5265 328.593 65.569C328.696 66.2809 328.75 67.009 328.75 67.7497C328.75 75.9341 322.195 82.5876 314.049 82.7468C317.394 82.7087 320.703 82.0314 323.795 80.7503C326.98 79.4311 329.874 77.4976 332.312 75.06C334.749 72.6225 336.683 69.7287 338.002 66.5439C339.276 63.467 339.953 60.1767 339.998 56.8487C339.999 56.8057 340 56.7624 340 56.7191L340 56.6004L340 56.4988C339.901 40.5963 329.141 31.9173 327.18 30.4668C326.996 30.3308 326.752 30.3324 326.568 30.4683C325.781 31.0501 323.59 32.7865 321.238 35.6773C320.969 36.007 320.442 35.944 320.26 35.5597C315.84 26.2051 309.716 20.5272 308.27 19.2663C308.083 19.1036 307.827 19.085 307.627 19.2299Z" fill="#CE6F00"/>
</svg>
