<svg width="733" height="1024" viewBox="0 0 733 1024" fill="none" xmlns="http://www.w3.org/2000/svg">
<path d="M-109.791 886.43L-112.642 882.359L-91.2524 867.382L-88.4018 871.453L-96.6879 877.255L-80.7669 899.993L-85.5841 903.366L-101.505 880.628L-109.791 886.43ZM-72.0775 876.351L-63.8282 888.132L-68.5669 891.45L-87.3385 864.642L-82.7046 861.397L-75.6194 871.516L-75.3838 871.351C-75.7069 869.886 -75.6045 868.481 -75.0767 867.136C-74.5462 865.777 -73.5131 864.559 -71.9772 863.484C-70.5809 862.506 -69.1588 861.946 -67.7109 861.803C-66.263 861.661 -64.8613 861.954 -63.5058 862.682C-62.1416 863.405 -60.8912 864.578 -59.7546 866.201L-50.7905 879.003L-55.5291 882.321L-63.98 870.252C-64.9271 868.899 -66.0125 868.092 -67.2361 867.831C-68.4572 867.554 -69.6917 867.853 -70.9396 868.727C-71.7774 869.313 -72.3995 870.022 -72.8061 870.853C-73.2101 871.669 -73.3614 872.549 -73.26 873.492C-73.1499 874.429 -72.7557 875.382 -72.0775 876.351ZM-45.9602 875.621L-60.0389 855.514L-55.3003 852.196L-41.2216 872.303L-45.9602 875.621ZM-59.6546 850.993C-60.4051 851.518 -61.2251 851.722 -62.1144 851.603C-63.0099 851.476 -63.7051 851.059 -64.2001 850.352C-64.7011 849.636 -64.8553 848.84 -64.6625 847.964C-64.4759 847.079 -64.0073 846.374 -63.2568 845.848C-62.4976 845.317 -61.6746 845.117 -60.7878 845.251C-59.8985 845.369 -59.2033 845.787 -58.7022 846.502C-58.2072 847.209 -58.0531 848.005 -58.2397 848.89C-58.4238 849.76 -58.8954 850.461 -59.6546 850.993ZM-30.8147 842.972L-34.8045 846.468C-35.2322 846.117 -35.7332 845.856 -36.3075 845.686C-36.8731 845.51 -37.4914 845.481 -38.1625 845.6C-38.8337 845.719 -39.5358 846.035 -40.2688 846.548C-41.2549 847.239 -41.9343 848.033 -42.3068 848.931C-42.6706 849.823 -42.6099 850.607 -42.1245 851.281C-41.7238 851.872 -41.177 852.198 -40.484 852.259C-39.7823 852.314 -38.8385 852.102 -37.6524 851.622L-33.7095 849.954C-31.5199 849.032 -29.6509 848.692 -28.1026 848.935C-26.5456 849.171 -25.2586 850.006 -24.2416 851.44C-23.3643 852.711 -22.9531 854.088 -23.0078 855.57C-23.06 857.037 -23.5424 858.493 -24.4551 859.939C-25.3678 861.384 -26.662 862.693 -28.3375 863.867C-30.7985 865.59 -33.14 866.462 -35.362 866.483C-37.5902 866.496 -39.4959 865.678 -41.0794 864.029L-36.7702 860.349C-35.9252 861.11 -35.0005 861.483 -33.996 861.469C-32.9914 861.455 -31.9437 861.066 -30.8529 860.302C-29.7271 859.514 -28.9858 858.65 -28.629 857.711C-28.2634 856.766 -28.319 855.953 -28.7956 855.272C-29.1989 854.696 -29.7544 854.376 -30.4623 854.313C-31.1614 854.243 -32.0437 854.432 -33.1093 854.879L-37.043 856.56C-39.2527 857.509 -41.1531 857.832 -42.7442 857.528C-44.3414 857.216 -45.6489 856.324 -46.6668 854.852C-47.5432 853.619 -47.9588 852.31 -47.9136 850.926C-47.8658 849.527 -47.4052 848.151 -46.5317 846.798C-45.6557 845.43 -44.4148 844.184 -42.809 843.06C-40.4528 841.41 -38.247 840.613 -36.1917 840.67C-34.1276 840.72 -32.3353 841.487 -30.8147 842.972ZM7.80413 817.998C9.82672 820.887 11.018 823.74 11.378 826.557C11.7406 829.359 11.3744 831.957 10.2794 834.349C9.19312 836.736 7.47625 838.751 5.12875 840.394C2.78125 842.038 0.29619 842.965 -2.32643 843.176C-4.94643 843.372 -7.51548 842.823 -10.0336 841.53C-12.5491 840.222 -14.815 838.128 -16.8315 835.248C-18.8541 832.36 -20.0467 829.514 -20.4093 826.712C-20.7693 823.895 -20.4061 821.293 -19.3199 818.907C-18.2249 816.514 -16.5036 814.496 -14.1561 812.853C-11.8086 811.209 -9.32794 810.285 -6.71405 810.08C-4.09143 809.869 -1.52238 810.418 0.993102 811.726C3.5112 813.019 5.78154 815.11 7.80413 817.998ZM2.92151 821.417C1.49775 819.384 -0.0214959 817.892 -1.63624 816.942C-3.24836 815.977 -4.86347 815.528 -6.48156 815.594C-8.10576 815.652 -9.64654 816.191 -11.1039 817.212C-12.5613 818.232 -13.5949 819.496 -14.2047 821.002C-14.8207 822.5 -14.9553 824.174 -14.6086 826.025C-14.2592 827.861 -13.3727 829.796 -11.9489 831.83C-10.5251 833.863 -9.0072 835.362 -7.39507 836.327C-5.78033 837.277 -4.16086 837.724 -2.53666 837.666C-0.918569 837.599 0.619161 837.056 2.07653 836.035C3.5339 835.015 4.57056 833.756 5.18653 832.258C5.79638 830.751 5.92662 829.08 5.57726 827.244C5.23052 825.393 4.34527 823.451 2.92151 821.417ZM21.7813 828.188L3.0097 801.379L13.0629 794.34C15.1224 792.898 17.1009 792.046 18.9982 791.784C20.9043 791.515 22.6673 791.777 24.2873 792.567C25.9098 793.343 27.32 794.586 28.5176 796.296C29.7214 798.015 30.3998 799.764 30.5528 801.543C30.7084 803.307 30.3207 805.028 29.3897 806.708C28.4525 808.378 26.9542 809.935 24.8947 811.377L17.7344 816.39L14.9113 812.359L21.4171 807.803C22.6214 806.96 23.4915 806.104 24.0272 805.234C24.5568 804.356 24.7788 803.466 24.6932 802.564C24.6101 801.646 24.2356 800.712 23.5696 799.761C22.9035 798.81 22.1476 798.129 21.3018 797.72C20.45 797.302 19.5178 797.188 18.5055 797.376C17.487 797.556 16.3712 798.071 15.1582 798.92L10.7076 802.037L26.6377 824.787L21.7813 828.188ZM27.1248 806.343L42.2674 813.843L36.8481 817.638L21.8233 810.055L27.1248 806.343ZM37.8002 783.086L34.9497 779.015L56.3389 764.038L59.1895 768.109L50.9035 773.911L66.8245 796.648L62.0073 800.021L46.0863 777.284L37.8002 783.086ZM75.5139 773.007L83.7631 784.788L79.0245 788.106L60.2529 761.297L64.8868 758.052L71.972 768.171L72.2076 768.006C71.8845 766.542 71.9868 765.137 72.5147 763.792C73.0451 762.432 74.0783 761.214 75.6142 760.139C77.0105 759.161 78.4326 758.601 79.8805 758.459C81.3284 758.316 82.7301 758.609 84.0856 759.338C85.4498 760.06 86.7002 761.233 87.8367 762.856L96.8009 775.659L92.0623 778.977L83.6114 766.907C82.6643 765.555 81.5789 764.748 80.3552 764.486C79.1342 764.209 77.8997 764.508 76.6518 765.382C75.814 765.969 75.1918 766.677 74.7852 767.508C74.3813 768.324 74.23 769.204 74.3313 770.148C74.4414 771.085 74.8356 772.038 75.5139 773.007ZM107.701 768.631C106.427 769.523 105.121 770.1 103.782 770.361C102.446 770.607 101.166 770.489 99.9434 770.005C98.7293 769.516 97.6609 768.612 96.7382 767.294C95.9438 766.16 95.4964 765.075 95.3959 764.04C95.2954 763.005 95.4515 762.011 95.8641 761.059C96.2768 760.107 96.8575 759.2 97.6062 758.337C98.3576 757.46 99.1853 756.627 100.089 755.838C101.182 754.891 102.061 754.112 102.727 753.503C103.387 752.885 103.809 752.355 103.994 751.914C104.182 751.457 104.116 751.002 103.799 750.548L103.744 750.47C103.053 749.484 102.226 748.925 101.263 748.793C100.299 748.661 99.2675 748.98 98.168 749.75C97.0073 750.563 96.2638 751.461 95.9376 752.444C95.62 753.42 95.5848 754.336 95.8319 755.19L90.9675 757.66C90.4611 756.194 90.3221 754.769 90.5506 753.387C90.7729 751.996 91.3209 750.689 92.1943 749.466C93.0617 748.234 94.1978 747.127 95.6029 746.143C96.5715 745.464 97.6153 744.903 98.7341 744.457C99.8529 744.012 100.993 743.773 102.153 743.741C103.308 743.7 104.437 743.956 105.54 744.51C106.652 745.058 107.676 746 108.611 747.335L118.033 760.792L113.478 763.981L111.544 761.219L111.387 761.329C111.49 762.089 111.451 762.897 111.269 763.752C111.09 764.593 110.712 765.437 110.135 766.283C109.559 767.115 108.748 767.898 107.701 768.631ZM106.494 764.287C107.445 763.621 108.138 762.856 108.573 761.992C109.003 761.119 109.185 760.237 109.12 759.346C109.064 758.449 108.777 757.63 108.257 756.888L106.598 754.518C106.535 754.744 106.362 755.035 106.077 755.39C105.802 755.74 105.473 756.106 105.092 756.49C104.71 756.874 104.327 757.247 103.942 757.607C103.558 757.968 103.223 758.28 102.94 758.543C102.3 759.134 101.777 759.734 101.372 760.344C100.966 760.953 100.739 761.567 100.691 762.186C100.637 762.796 100.824 763.406 101.252 764.017C101.863 764.89 102.643 765.326 103.591 765.325C104.54 765.323 105.507 764.978 106.494 764.287ZM118.759 730.319L121.326 733.984L109.767 742.077L107.201 738.412L118.759 730.319ZM106.681 731.597L111.42 728.279L124.637 747.155C125.083 747.792 125.521 748.213 125.952 748.419C126.385 748.61 126.805 748.654 127.214 748.55C127.622 748.446 128.023 748.256 128.415 747.981C128.712 747.774 128.967 747.562 129.181 747.348C129.404 747.127 129.568 746.953 129.675 746.827L133.067 749.972C132.875 750.236 132.58 750.586 132.182 751.021C131.793 751.449 131.269 751.908 130.609 752.396C129.446 753.262 128.252 753.831 127.026 754.105C125.794 754.369 124.605 754.278 123.46 753.831C122.323 753.379 121.32 752.521 120.448 751.258L106.681 731.597Z" fill="#A9A9A9" fill-opacity="0.24"/>
<path d="M611.999 492.434L612.669 492.122C615.784 490.69 618.392 489.83 620.492 489.54C622.601 489.267 624.461 489.402 626.073 489.946C627.703 490.482 629.345 491.294 631.002 492.381C632.142 493.124 633.291 493.728 634.448 494.191C635.629 494.664 636.813 494.917 637.998 494.949C639.201 494.974 640.403 494.706 641.604 494.145C642.96 493.513 643.988 492.647 644.687 491.548C645.387 490.449 645.759 489.23 645.804 487.893C645.857 486.572 645.576 485.251 644.959 483.929C644.391 482.711 643.585 481.676 642.54 480.826C641.521 479.984 640.311 479.452 638.911 479.227C637.536 479.011 636.021 479.237 634.368 479.903L630.093 470.737C633.395 469.302 636.492 468.819 639.386 469.288C642.287 469.774 644.863 470.997 647.115 472.956C649.374 474.933 651.204 477.423 652.604 480.427C654.133 483.706 654.903 486.857 654.913 489.883C654.932 492.925 654.201 495.638 652.721 498.021C651.266 500.413 649.088 502.285 646.187 503.638C644.231 504.55 642.332 505.049 640.491 505.134C638.658 505.237 636.872 504.993 635.134 504.403C633.397 503.813 631.687 502.949 630.007 501.81C628.5 500.82 627.076 500.095 625.732 499.634C624.397 499.191 623.003 499.047 621.55 499.202C620.122 499.367 618.494 499.865 616.667 500.696L615.997 501.008L611.999 492.434ZM598.022 504.406C597.302 502.861 597.231 501.275 597.809 499.647C598.387 498.019 599.466 496.837 601.045 496.1C602.59 495.38 604.172 495.321 605.791 495.925C607.41 496.528 608.579 497.602 609.299 499.147C610.012 500.675 610.079 502.253 609.501 503.881C608.93 505.526 607.873 506.709 606.328 507.429C605.281 507.917 604.204 508.095 603.098 507.964C601.999 507.849 600.993 507.482 600.077 506.864C599.187 506.255 598.502 505.436 598.022 504.406Z" fill="#A9A9A9" fill-opacity="0.24"/>
<path d="M-18.2879 421.617L-18.5527 421.239C-19.7719 419.477 -20.5848 417.966 -20.9913 416.704C-21.3881 415.436 -21.5065 414.276 -21.3467 413.225C-21.1936 412.164 -20.8723 411.065 -20.3827 409.927C-20.0493 409.144 -19.8026 408.372 -19.6427 407.61C-19.4799 406.831 -19.4528 406.075 -19.5615 405.342C-19.677 404.599 -19.9724 403.888 -20.4477 403.21C-20.984 402.444 -21.6285 401.905 -22.3811 401.594C-23.1336 401.283 -23.924 401.186 -24.7521 401.303C-25.5706 401.414 -26.3531 401.731 -27.0997 402.254C-27.7882 402.736 -28.3374 403.344 -28.7475 404.079C-29.1547 404.798 -29.3514 405.6 -29.3377 406.487C-29.3211 407.357 -29.018 408.264 -28.4282 409.21L-33.6061 412.835C-34.8476 410.959 -35.4811 409.105 -35.5066 407.273C-35.5224 405.434 -35.0494 403.716 -34.0876 402.118C-33.1162 400.513 -31.782 399.116 -30.0852 397.928C-28.2331 396.631 -26.3767 395.815 -24.5158 395.481C-22.6453 395.139 -20.8963 395.294 -19.269 395.947C-17.6388 396.583 -16.25 397.72 -15.1026 399.359C-14.3285 400.464 -13.8154 401.579 -13.5631 402.703C-13.3011 403.82 -13.2573 404.945 -13.4317 406.079C-13.6061 407.212 -13.9526 408.358 -14.4713 409.516C-14.9172 410.551 -15.209 411.507 -15.3466 412.383C-15.4744 413.253 -15.4118 414.127 -15.1586 415.004C-14.9024 415.865 -14.4194 416.813 -13.7094 417.848L-13.4446 418.226L-18.2879 421.617ZM-9.40221 428.921C-10.2749 429.532 -11.2436 429.748 -12.3084 429.569C-13.3732 429.39 -14.2179 428.854 -14.8426 427.962C-15.4536 427.089 -15.6613 426.122 -15.4655 425.06C-15.2698 423.998 -14.7356 423.162 -13.8629 422.551C-12.9999 421.946 -12.036 421.734 -10.9712 421.913C-9.89676 422.086 -9.05398 422.608 -8.44293 423.481C-8.02877 424.072 -7.80225 424.716 -7.76336 425.411C-7.71478 426.1 -7.83106 426.759 -8.11219 427.389C-8.39042 428.003 -8.82043 428.514 -9.40221 428.921Z" fill="#A9A9A9" fill-opacity="0.24"/>
<path d="M417.615 146.711L417.321 146.418C415.965 145.047 415.008 143.834 414.451 142.779C413.901 141.717 413.615 140.708 413.592 139.751C413.562 138.787 413.675 137.762 413.931 136.677C414.104 135.932 414.202 135.208 414.225 134.508C414.247 133.792 414.153 133.118 413.942 132.485C413.724 131.845 413.351 131.261 412.824 130.734C412.228 130.139 411.573 129.762 410.857 129.604C410.142 129.446 409.426 129.483 408.71 129.717C408.002 129.943 407.358 130.346 406.778 130.926C406.243 131.461 405.852 132.086 405.603 132.802C405.354 133.502 405.306 134.244 405.456 135.028C405.607 135.796 406.017 136.553 406.688 137.299L402.665 141.321C401.272 139.853 400.42 138.308 400.111 136.689C399.81 135.061 399.961 133.464 400.563 131.898C401.174 130.323 402.138 128.877 403.456 127.559C404.895 126.12 406.413 125.106 408.01 124.519C409.614 123.924 411.189 123.788 412.733 124.112C414.277 124.421 415.686 125.212 416.959 126.485C417.818 127.344 418.447 128.252 418.846 129.208C419.253 130.157 419.468 131.148 419.49 132.18C419.513 133.212 419.385 134.282 419.106 135.389C418.873 136.376 418.763 137.269 418.778 138.067C418.801 138.858 418.993 139.623 419.355 140.361C419.716 141.084 420.293 141.849 421.084 142.655L421.377 142.949L417.615 146.711ZM426.632 151.796C425.954 152.474 425.129 152.817 424.157 152.825C423.185 152.832 422.353 152.489 421.66 151.796C420.982 151.118 420.647 150.293 420.654 149.322C420.662 148.35 421.005 147.525 421.682 146.847C422.353 146.177 423.174 145.838 424.146 145.83C425.125 145.815 425.954 146.146 426.632 146.824C427.091 147.284 427.393 147.819 427.536 148.429C427.686 149.032 427.686 149.634 427.536 150.237C427.385 150.824 427.084 151.344 426.632 151.796Z" fill="#A9A9A9" fill-opacity="0.24"/>
<path d="M563.964 785.064L568.469 782.964L579.504 806.629L575 808.729L570.725 799.561L545.568 811.292L543.083 805.962L568.239 794.232L563.964 785.064ZM567.341 823.955L554.307 830.033L551.862 824.79L581.523 810.959L583.914 816.086L572.719 821.306L572.84 821.567C574.338 821.503 575.704 821.848 576.937 822.601C578.184 823.36 579.204 824.589 579.996 826.288C580.717 827.833 581.021 829.331 580.91 830.781C580.799 832.232 580.267 833.561 579.314 834.77C578.366 835.988 576.994 837.016 575.198 837.853L561.033 844.458L558.589 839.215L571.942 832.988C573.438 832.291 574.422 831.362 574.892 830.202C575.376 829.048 575.296 827.78 574.653 826.399C574.22 825.472 573.63 824.737 572.883 824.192C572.149 823.652 571.309 823.351 570.362 823.287C569.42 823.232 568.413 823.455 567.341 823.955ZM563.525 849.802L585.771 839.429L588.216 844.672L565.97 855.045L563.525 849.802ZM590.158 840.592C589.77 839.762 589.712 838.919 589.984 838.064C590.264 837.204 590.796 836.592 591.578 836.227C592.37 835.858 593.18 835.844 594.01 836.186C594.849 836.524 595.462 837.108 595.849 837.938C596.241 838.778 596.294 839.623 596.009 840.473C595.738 841.329 595.206 841.941 594.414 842.31C593.632 842.675 592.822 842.688 591.983 842.351C591.158 842.019 590.549 841.432 590.158 840.592ZM593.049 870.387L590.299 865.851C590.718 865.49 591.062 865.042 591.329 864.506C591.601 863.98 591.736 863.376 591.736 862.694C591.736 862.013 591.546 861.266 591.168 860.455C590.659 859.364 589.995 858.557 589.175 858.035C588.36 857.521 587.578 857.445 586.829 857.806C586.178 858.098 585.762 858.58 585.582 859.252C585.406 859.933 585.451 860.9 585.717 862.151L586.675 866.324C587.203 868.64 587.213 870.54 586.705 872.022C586.202 873.515 585.156 874.637 583.568 875.39C582.163 876.033 580.736 876.199 579.286 875.888C577.85 875.581 576.5 874.853 575.235 873.704C573.97 872.554 572.905 871.052 572.041 869.198C570.771 866.475 570.319 864.018 570.684 861.826C571.058 859.63 572.195 857.895 574.093 856.622L576.97 861.504C576.074 862.204 575.545 863.05 575.385 864.042C575.224 865.034 575.425 866.133 575.988 867.34C576.569 868.586 577.291 869.466 578.154 869.98C579.021 870.504 579.831 870.591 580.584 870.239C581.222 869.942 581.633 869.451 581.819 868.765C582.009 868.088 581.976 867.187 581.721 866.06L580.748 861.894C580.197 859.553 580.209 857.625 580.785 856.111C581.369 854.592 582.475 853.46 584.102 852.713C585.468 852.064 586.829 851.882 588.184 852.167C589.554 852.457 590.829 853.149 592.01 854.244C593.205 855.345 594.216 856.783 595.045 858.56C596.26 861.166 596.662 863.477 596.249 865.491C595.841 867.515 594.774 869.147 593.049 870.387ZM610.936 912.756C607.74 914.246 604.724 914.924 601.887 914.789C599.064 914.659 596.57 913.848 594.404 912.354C592.243 910.87 590.556 908.829 589.345 906.232C588.134 903.635 587.653 901.026 587.901 898.407C588.163 895.793 589.149 893.358 590.86 891.103C592.585 888.853 595.04 886.985 598.226 885.499C601.422 884.009 604.432 883.328 607.254 883.458C610.091 883.592 612.59 884.402 614.752 885.886C616.918 887.38 618.606 889.425 619.817 892.023C621.028 894.62 621.508 897.223 621.255 899.833C621.008 902.452 620.021 904.887 618.296 907.137C616.586 909.393 614.132 911.265 610.936 912.756ZM608.417 907.354C610.667 906.304 612.4 905.067 613.616 903.642C614.846 902.222 615.569 900.71 615.785 899.104C616.01 897.495 615.746 895.884 614.995 894.271C614.243 892.659 613.178 891.422 611.8 890.56C610.432 889.693 608.807 889.27 606.923 889.29C605.054 889.315 602.995 889.852 600.745 890.901C598.496 891.95 596.756 893.185 595.525 894.605C594.309 896.03 593.589 897.547 593.363 899.157C593.148 900.762 593.416 902.371 594.168 903.983C594.92 905.595 595.98 906.835 597.348 907.702C598.726 908.564 600.349 908.982 602.218 908.957C604.101 908.937 606.168 908.403 608.417 907.354ZM598.475 924.751L628.136 910.92L633.322 922.043C634.385 924.321 634.88 926.418 634.809 928.332C634.742 930.256 634.179 931.946 633.119 933.404C632.074 934.868 630.604 936.041 628.712 936.923C626.81 937.81 624.97 938.174 623.192 938.016C621.428 937.863 619.799 937.182 618.307 935.974C616.825 934.761 615.552 933.015 614.49 930.736L610.796 922.814L615.256 920.734L618.613 927.932C619.234 929.265 619.926 930.27 620.689 930.949C621.462 931.623 622.3 931.996 623.204 932.068C624.122 932.146 625.107 931.939 626.159 931.448C627.212 930.958 628.013 930.331 628.563 929.57C629.122 928.803 629.397 927.905 629.387 926.875C629.387 925.841 629.074 924.653 628.448 923.311L626.152 918.387L600.98 930.124L598.475 924.751ZM619.06 933.807L609.044 947.417L606.248 941.421L616.325 927.941L619.06 933.807ZM640.11 948.359L644.614 946.258L655.649 969.923L651.145 972.024L646.87 962.856L621.713 974.587L619.228 969.257L644.385 957.526L640.11 948.359ZM643.487 987.25L630.452 993.328L628.008 988.085L657.669 974.254L660.059 979.381L648.864 984.601L648.986 984.862C650.484 984.798 651.85 985.143 653.083 985.896C654.33 986.654 655.349 987.883 656.142 989.583C656.862 991.128 657.167 992.625 657.056 994.076C656.944 995.527 656.412 996.856 655.46 998.064C654.511 999.283 653.139 1000.31 651.343 1001.15L637.179 1007.75L634.734 1002.51L648.087 996.283C649.584 995.585 650.567 994.656 651.037 993.497C651.522 992.342 651.442 991.075 650.798 989.694C650.366 988.767 649.776 988.031 649.028 987.487C648.295 986.947 647.455 986.645 646.508 986.581C645.566 986.527 644.559 986.75 643.487 987.25ZM642.207 1019.71C641.55 1018.3 641.209 1016.91 641.184 1015.55C641.173 1014.19 641.512 1012.95 642.201 1011.83C642.894 1010.72 643.969 1009.82 645.427 1009.14C646.682 1008.56 647.828 1008.31 648.865 1008.39C649.902 1008.47 650.853 1008.79 651.719 1009.37C652.585 1009.94 653.378 1010.67 654.097 1011.55C654.831 1012.45 655.508 1013.41 656.128 1014.43C656.871 1015.67 657.484 1016.67 657.969 1017.44C658.463 1018.19 658.911 1018.7 659.314 1018.96C659.731 1019.22 660.191 1019.24 660.693 1019L660.78 1018.96C661.871 1018.46 662.565 1017.74 662.862 1016.81C663.158 1015.89 663.023 1014.81 662.456 1013.6C661.857 1012.31 661.102 1011.43 660.191 1010.93C659.284 1010.45 658.389 1010.26 657.505 1010.35L655.917 1005.13C657.449 1004.89 658.876 1005 660.197 1005.46C661.529 1005.93 662.721 1006.69 663.774 1007.76C664.836 1008.83 665.729 1010.14 666.454 1011.7C666.954 1012.77 667.326 1013.9 667.57 1015.07C667.814 1016.25 667.852 1017.42 667.682 1018.57C667.522 1019.71 667.074 1020.78 666.336 1021.77C665.604 1022.77 664.499 1023.61 663.022 1024.3L648.133 1031.24L645.783 1026.2L648.839 1024.78L648.758 1024.61C647.991 1024.57 647.203 1024.4 646.392 1024.07C645.595 1023.75 644.83 1023.23 644.096 1022.51C643.377 1021.8 642.747 1020.87 642.207 1019.71ZM646.694 1019.27C647.185 1020.33 647.818 1021.14 648.593 1021.72C649.379 1022.29 650.215 1022.63 651.104 1022.72C651.997 1022.82 652.854 1022.68 653.675 1022.29L656.297 1021.07C656.085 1020.97 655.829 1020.75 655.528 1020.41C655.232 1020.08 654.928 1019.69 654.616 1019.25C654.304 1018.8 654.004 1018.36 653.716 1017.92C653.428 1017.48 653.179 1017.1 652.968 1016.77C652.497 1016.04 651.997 1015.42 651.468 1014.91C650.938 1014.41 650.373 1014.08 649.772 1013.92C649.18 1013.76 648.547 1013.84 647.871 1014.16C646.905 1014.61 646.341 1015.3 646.177 1016.23C646.013 1017.17 646.186 1018.18 646.694 1019.27ZM678.017 1037.25L673.962 1039.14L667.998 1026.35L672.054 1024.46L678.017 1037.25ZM678.856 1025.13L681.3 1030.38L660.416 1040.12C659.711 1040.44 659.22 1040.8 658.943 1041.19C658.679 1041.58 658.563 1041.99 658.595 1042.41C658.626 1042.83 658.743 1043.26 658.946 1043.69C659.099 1044.02 659.262 1044.31 659.437 1044.56C659.616 1044.81 659.758 1045.01 659.864 1045.13L656.178 1047.93C655.95 1047.69 655.657 1047.34 655.298 1046.87C654.944 1046.42 654.584 1045.82 654.218 1045.09C653.567 1043.79 653.213 1042.52 653.157 1041.26C653.11 1040 653.406 1038.85 654.045 1037.8C654.688 1036.76 655.707 1035.92 657.102 1035.28L678.856 1025.13Z" fill="#A9A9A9" fill-opacity="0.24"/>
<path d="M142.174 544.044L145.689 540.529L164.152 558.993L160.638 562.507L153.485 555.355L133.858 574.982L129.7 570.824L149.327 551.196L142.174 544.044ZM158.649 579.434L148.48 589.604L144.389 585.513L167.531 562.372L171.531 566.372L162.796 575.106L163 575.31C164.386 574.737 165.787 574.594 167.203 574.88C168.634 575.167 170.013 575.973 171.339 577.299C172.544 578.504 173.343 579.807 173.734 581.208C174.126 582.609 174.081 584.041 173.599 585.502C173.124 586.971 172.186 588.406 170.785 589.807L159.734 600.858L155.644 596.768L166.062 586.35C167.23 585.182 167.836 583.973 167.881 582.722C167.941 581.472 167.433 580.308 166.356 579.231C165.633 578.508 164.826 578.018 163.938 577.762C163.064 577.506 162.171 577.509 161.26 577.773C160.356 578.044 159.486 578.598 158.649 579.434ZM168.548 610.373C167.448 609.273 166.653 608.086 166.164 606.813C165.689 605.54 165.584 604.259 165.847 602.971C166.118 601.691 166.823 600.482 167.96 599.344C168.94 598.365 169.93 597.736 170.932 597.457C171.934 597.178 172.94 597.16 173.949 597.401C174.959 597.642 175.953 598.056 176.932 598.644C177.927 599.231 178.891 599.902 179.825 600.655C180.947 601.566 181.866 602.297 182.582 602.847C183.305 603.389 183.9 603.713 184.367 603.819C184.849 603.924 185.286 603.781 185.678 603.389L185.746 603.322C186.597 602.47 187.004 601.559 186.966 600.587C186.929 599.615 186.435 598.655 185.486 597.706C184.484 596.704 183.471 596.128 182.446 595.977C181.429 595.834 180.522 595.958 179.723 596.35L176.446 591.988C177.802 591.235 179.181 590.851 180.582 590.836C181.991 590.813 183.373 591.126 184.729 591.773C186.092 592.414 187.381 593.34 188.593 594.553C189.43 595.389 190.164 596.32 190.797 597.344C191.43 598.369 191.863 599.45 192.096 600.587C192.337 601.717 192.281 602.873 191.927 604.056C191.58 605.246 190.831 606.418 189.678 607.57L178.062 619.186L174.13 615.254L176.514 612.87L176.378 612.734C175.648 612.968 174.846 613.069 173.972 613.039C173.113 613.009 172.216 612.783 171.282 612.361C170.363 611.939 169.452 611.277 168.548 610.373ZM172.616 608.429C173.437 609.25 174.311 609.8 175.237 610.079C176.171 610.35 177.072 610.376 177.938 610.158C178.812 609.947 179.569 609.521 180.209 608.881L182.254 606.836C182.021 606.813 181.704 606.693 181.305 606.474C180.913 606.263 180.495 606.003 180.051 605.695C179.606 605.386 179.173 605.073 178.751 604.757C178.33 604.44 177.964 604.165 177.655 603.932C176.962 603.404 176.281 602.994 175.61 602.7C174.94 602.406 174.296 602.29 173.678 602.35C173.068 602.403 172.499 602.693 171.972 603.22C171.218 603.973 170.925 604.817 171.09 605.751C171.256 606.685 171.764 607.578 172.616 608.429ZM208.198 614.61L205.034 617.774L195.057 607.796L198.221 604.632L208.198 614.61ZM204.842 602.937L208.933 607.028L192.639 623.322C192.089 623.872 191.75 624.377 191.622 624.836C191.509 625.296 191.539 625.718 191.712 626.102C191.885 626.486 192.142 626.847 192.48 627.186C192.737 627.443 192.989 627.657 193.238 627.831C193.494 628.011 193.693 628.143 193.836 628.226L191.328 632.113C191.034 631.97 190.639 631.74 190.141 631.424C189.652 631.115 189.109 630.678 188.514 630.113C187.46 629.119 186.691 628.041 186.209 626.881C185.735 625.714 185.618 624.527 185.859 623.322C186.107 622.124 186.778 620.987 187.87 619.909L204.842 602.937Z" fill="#A9A9A9" fill-opacity="0.24"/>
<path d="M144.095 881.615L144.389 881.321C145.76 879.965 146.973 879.008 148.027 878.451C149.09 877.901 150.099 877.615 151.056 877.592C152.02 877.562 153.045 877.675 154.129 877.931C154.875 878.104 155.598 878.202 156.299 878.225C157.014 878.247 157.689 878.153 158.321 877.942C158.962 877.724 159.546 877.351 160.073 876.824C160.668 876.228 161.045 875.573 161.203 874.857C161.361 874.142 161.323 873.426 161.09 872.71C160.864 872.002 160.461 871.358 159.881 870.778C159.346 870.243 158.721 869.852 158.005 869.603C157.305 869.354 156.562 869.306 155.779 869.456C155.011 869.607 154.254 870.017 153.508 870.688L149.485 866.665C150.954 865.272 152.498 864.42 154.118 864.111C155.745 863.81 157.342 863.961 158.909 864.563C160.483 865.174 161.93 866.138 163.248 867.456C164.687 868.895 165.7 870.413 166.288 872.01C166.883 873.614 167.018 875.189 166.695 876.733C166.386 878.277 165.595 879.686 164.322 880.959C163.463 881.818 162.555 882.447 161.598 882.846C160.649 883.253 159.659 883.468 158.627 883.49C157.595 883.513 156.525 883.385 155.417 883.106C154.431 882.873 153.538 882.763 152.739 882.778C151.948 882.801 151.184 882.993 150.446 883.355C149.722 883.716 148.958 884.293 148.152 885.084L147.858 885.377L144.095 881.615ZM139.01 890.632C138.332 889.954 137.99 889.129 137.982 888.157C137.975 887.185 138.317 886.353 139.01 885.66C139.688 884.982 140.513 884.647 141.485 884.654C142.457 884.662 143.282 885.005 143.96 885.682C144.63 886.353 144.969 887.174 144.977 888.146C144.992 889.125 144.66 889.954 143.982 890.632C143.523 891.091 142.988 891.393 142.378 891.536C141.775 891.686 141.172 891.686 140.57 891.536C139.982 891.385 139.462 891.084 139.01 890.632Z" fill="#A9A9A9" fill-opacity="0.24"/>
<path d="M58.2312 301.521C60.4785 304.731 61.8022 307.901 62.2022 311.031C62.605 314.145 62.1981 317.031 60.9815 319.689C59.7745 322.34 57.8669 324.579 55.2586 326.406C52.6502 328.232 49.8891 329.262 46.975 329.496C44.0639 329.714 41.2094 329.104 38.4115 327.668C35.6166 326.214 33.0988 323.888 30.8583 320.688C28.611 317.478 27.2859 314.317 26.883 311.203C26.483 308.073 26.8865 305.182 28.0935 302.531C29.3101 299.872 31.2226 297.63 33.8309 295.804C36.4393 293.977 39.1956 292.95 42.0999 292.723C45.0139 292.489 47.8684 293.099 50.6634 294.552C53.4613 295.989 55.9839 298.312 58.2312 301.521ZM52.8061 305.32C51.2241 303.061 49.5361 301.403 47.7419 300.347C45.9507 299.275 44.1561 298.776 42.3582 298.85C40.5536 298.914 38.8416 299.513 37.2223 300.647C35.603 301.781 34.4545 303.185 33.7769 304.859C33.0925 306.523 32.9429 308.383 33.3282 310.44C33.7164 312.48 34.7015 314.63 36.2834 316.889C37.8654 319.149 39.552 320.814 41.3432 321.887C43.1374 322.942 44.9368 323.438 46.7414 323.374C48.5393 323.3 50.2479 322.696 51.8672 321.562C53.4865 320.428 54.6384 319.029 55.3228 317.365C56.0004 315.691 56.1451 313.834 55.7569 311.794C55.3716 309.737 54.388 307.579 52.8061 305.32ZM73.7614 312.843L52.9041 283.055L64.0743 275.234C66.3627 273.632 68.5609 272.685 70.6691 272.394C72.787 272.096 74.7459 272.386 76.5458 273.264C78.3487 274.126 79.9155 275.507 81.2462 277.408C82.5837 279.318 83.3375 281.261 83.5075 283.237C83.6804 285.197 83.2496 287.11 82.2151 288.976C81.1739 290.832 79.5091 292.561 77.2208 294.164L69.2649 299.735L66.1281 295.255L73.3568 290.193C74.6949 289.256 75.6616 288.305 76.2569 287.339C76.8453 286.363 77.092 285.374 76.9968 284.371C76.9046 283.352 76.4884 282.314 75.7484 281.257C75.0083 280.2 74.1684 279.445 73.2287 278.99C72.2821 278.526 71.2464 278.398 70.1216 278.608C68.9899 278.808 67.7502 279.38 66.4024 280.323L61.4572 283.786L79.1574 309.064L73.7614 312.843ZM79.6986 288.57L96.5237 296.904L90.5022 301.121L73.808 292.695L79.6986 288.57Z" fill="#A9A9A9" fill-opacity="0.24"/>
<path d="M519.613 426.762C522.822 429.009 525.15 431.535 526.597 434.34C528.04 437.128 528.645 439.979 528.411 442.893C528.184 445.797 527.157 448.554 525.331 451.162C523.504 453.77 521.262 455.683 518.604 456.899C515.943 458.1 513.052 458.503 509.931 458.11C506.808 457.7 503.646 456.375 500.446 454.135C497.237 451.887 494.91 449.369 493.467 446.581C492.02 443.777 491.411 440.922 491.638 438.018C491.872 435.104 492.902 432.343 494.729 429.734C496.555 427.126 498.794 425.218 501.445 424.011C504.104 422.795 506.994 422.391 510.118 422.801C513.238 423.194 516.403 424.514 519.613 426.762ZM515.814 432.187C513.555 430.605 511.402 429.625 509.355 429.246C507.305 428.851 505.448 428.996 503.784 429.68C502.11 430.358 500.706 431.506 499.572 433.126C498.438 434.745 497.839 436.457 497.775 438.262C497.701 440.059 498.197 441.859 499.262 443.66C500.325 445.444 501.986 447.127 504.245 448.709C506.504 450.291 508.659 451.28 510.709 451.675C512.756 452.053 514.616 451.904 516.29 451.226C517.954 450.542 519.353 449.39 520.487 447.771C521.621 446.151 522.225 444.443 522.299 442.645C522.363 440.84 521.864 439.046 520.801 437.261C519.736 435.46 518.074 433.769 515.814 432.187ZM537.916 432.321L515.575 416.678L519.15 411.573L522.873 414.18L523.036 413.948C522.032 412.638 521.527 411.243 521.521 409.766C521.513 408.271 521.957 406.884 522.853 405.604C523.056 405.313 523.298 404.999 523.579 404.66C523.856 404.305 524.104 404.024 524.322 403.815L529.166 407.207C528.932 407.375 528.616 407.682 528.218 408.126C527.818 408.553 527.461 408.99 527.149 409.436C526.477 410.396 526.081 411.405 525.962 412.463C525.839 413.504 525.989 414.498 526.411 415.444C526.833 416.389 527.519 417.195 528.469 417.86L541.603 427.056L537.916 432.321Z" fill="#A9A9A9" fill-opacity="0.24"/>
<path d="M-63.335 78.7932L-46.5653 102.392L-50.639 108.21L-78.5503 100.523L-74.6192 94.9086L-54.4287 101.395L-54.2658 101.162L-67.2559 84.3929L-63.335 78.7932ZM-31.6139 81.9679C-33.1822 84.2078 -35.0022 85.8163 -37.0736 86.7935C-39.148 87.7543 -41.3489 88.0701 -43.6762 87.741C-46.0132 87.4052 -48.3502 86.4191 -50.687 84.7828C-52.985 83.1737 -54.6964 81.3252 -55.821 79.2372C-56.9485 77.1327 -57.4437 74.9507 -57.3067 72.6913C-57.1793 70.425 -56.3688 68.2253 -54.8751 66.0921C-53.911 64.7152 -52.7782 63.572 -51.4767 62.6626C-50.1781 61.7367 -48.7389 61.126 -47.1592 60.8304C-45.5726 60.5252 -43.8766 60.6001 -42.071 61.0551C-40.2751 61.5034 -38.3978 62.4133 -36.4391 63.7847L-34.8247 64.9152L-47.6467 83.2268L-51.1955 80.7419L-41.9075 67.4772C-42.9227 66.7808 -43.9724 66.3709 -45.0566 66.2476C-46.1504 66.1175 -47.1934 66.2759 -48.1855 66.7229C-49.1708 67.1601 -50.0165 67.8829 -50.7226 68.8913C-51.4762 69.9676 -51.8764 71.0963 -51.9231 72.2775C-51.9795 73.4518 -51.7455 74.5622 -51.221 75.6086C-50.6994 76.6385 -49.9427 77.508 -48.9507 78.217L-45.8527 80.3863C-44.5534 81.296 -43.272 81.8393 -42.0084 82.0159C-40.7546 82.1858 -39.5817 82.0173 -38.4897 81.5102C-37.4074 80.9964 -36.4657 80.1674 -35.6645 79.0233C-35.1281 78.2572 -34.7494 77.4893 -34.5281 76.7193C-34.3166 75.9426 -34.2646 75.177 -34.3722 74.4225C-34.4797 73.6681 -34.7671 72.9538 -35.2345 72.2798L-31.2395 67.7507C-30.1574 68.9708 -29.4371 70.3566 -29.0785 71.9083C-28.7229 73.4434 -28.7502 75.0716 -29.1607 76.7928C-29.5808 78.5072 -30.3985 80.2323 -31.6139 81.9679ZM-21.9754 67.2742L-44.3159 51.6312L-40.7413 46.526L-37.0179 49.1332L-36.8549 48.9005C-37.8594 47.5902 -38.3644 46.1961 -38.37 44.7183C-38.3785 43.2239 -37.9347 41.8368 -37.0385 40.5568C-36.8348 40.2659 -36.5928 39.9513 -36.3125 39.6129C-36.0351 39.258 -35.7873 38.9763 -35.5691 38.7679L-30.7257 42.1592C-30.9595 42.3279 -31.2752 42.6343 -31.6728 43.0784C-32.0734 43.506 -32.4298 43.9428 -32.7421 44.3889C-33.4143 45.3488 -33.8101 46.3578 -33.9295 47.4157C-34.0518 48.4572 -33.9021 49.4507 -33.4804 50.3963C-33.0587 51.3418 -32.3728 52.1473 -31.4225 52.8126L-18.2887 62.009L-21.9754 67.2742ZM-14.6765 21.8698L-17.5137 27.0361C-18.0935 26.8324 -18.7156 26.7509 -19.3799 26.7915C-20.0374 26.8224 -20.6939 27.0274 -21.3495 27.4065C-22.0051 27.7856 -22.618 28.3824 -23.1884 29.1969C-23.9556 30.2926 -24.363 31.3801 -24.4107 32.4594C-24.4516 33.529 -24.0904 34.3237 -23.3273 34.8436C-22.6845 35.3082 -21.9897 35.4407 -21.2429 35.241C-20.4894 35.0317 -19.5846 34.4514 -18.5284 33.5002L-15.0456 30.2599C-13.1098 28.4652 -11.2875 27.4002 -9.5788 27.0649C-7.86329 26.7199 -6.20219 27.1027 -4.5955 28.2132C-3.19631 29.2074 -2.24372 30.4886 -1.73774 32.0567C-1.23466 33.6083 -1.18496 35.3122 -1.58863 37.1682C-1.99229 39.0242 -2.84592 40.8831 -4.1495 42.7448C-6.06414 45.4792 -8.17744 47.2797 -10.4894 48.1463C-12.8111 49.0061 -15.1118 48.8763 -17.3914 47.7569L-14.2909 42.2764C-13.1195 42.7498 -12.0121 42.7883 -10.9686 42.3918C-9.92514 41.9953 -8.97905 41.1911 -8.13036 39.979C-7.25452 38.7282 -6.80876 37.5447 -6.79309 36.4285C-6.77063 35.3027 -7.13756 34.4749 -7.89388 33.9454C-8.53384 33.4973 -9.23543 33.3745 -9.99864 33.5771C-10.7551 33.7699 -11.6046 34.3022 -12.5473 35.1739L-16.0155 38.4244C-17.9621 40.255 -19.8236 41.3142 -21.6002 41.6019C-23.3865 41.8829 -25.0907 41.4482 -26.713 40.2979C-28.0966 39.3435 -29.0279 38.1351 -29.5067 36.6726C-29.9885 35.1937 -30.0304 33.582 -29.6326 31.8375C-29.2377 30.0765 -28.4156 28.304 -27.1663 26.5199C-25.3332 23.9018 -23.3328 22.2317 -21.1654 21.5096C-18.9911 20.7777 -16.8282 20.8978 -14.6765 21.8698ZM5.70958 7.73824L-7.23512 -1.32573L-3.54843 -6.59088L18.7921 9.05211L15.2174 14.1573L11.2467 11.377L11.0838 11.6097C11.9816 12.9897 12.424 14.5351 12.4112 16.2457C12.4051 17.9466 11.8148 19.6358 10.6402 21.3133C9.61503 22.7774 8.3838 23.8445 6.94656 24.5143C5.50641 25.1677 3.94026 25.3717 2.24811 25.1261C0.546261 24.8737 -1.19673 24.1229 -2.98087 22.8736L-17.2055 12.9134L-13.5188 7.64829L-0.108674 17.0382C1.307 18.0294 2.70336 18.4291 4.08041 18.2373C5.45746 18.0455 6.58731 17.3193 7.46994 16.0588C8.0131 15.2831 8.35021 14.3992 8.48126 13.4072C8.61231 12.4152 8.46747 11.4251 8.04675 10.4369C7.62311 9.43215 6.84405 8.53261 5.70958 7.73824ZM18.5114 -25.5275L15.6742 -20.3611C15.0944 -20.5648 14.4723 -20.6464 13.808 -20.6057C13.1505 -20.5748 12.494 -20.3698 11.8384 -19.9907C11.1828 -19.6116 10.5699 -19.0149 9.99954 -18.2004C9.23232 -17.1047 8.82488 -16.0172 8.77722 -14.9379C8.73634 -13.8682 9.09745 -13.0735 9.86056 -12.5536C10.5034 -12.089 11.1982 -11.9565 11.945 -12.1562C12.6985 -12.3656 13.6033 -12.9458 14.6595 -13.897L18.1423 -17.1374C20.0781 -18.9321 21.9004 -19.9971 23.6091 -20.3324C25.3246 -20.6773 26.9857 -20.2946 28.5924 -19.184C29.9916 -18.1898 30.9442 -16.9087 31.4502 -15.3405C31.9532 -13.7889 32.0029 -12.0851 31.5993 -10.229C31.1956 -8.37302 30.342 -6.51416 29.0384 -4.65245C27.1238 -1.91806 25.0105 -0.117558 22.6985 0.749063C20.3768 1.60889 18.0761 1.47911 15.7965 0.359723L18.897 -5.12079C20.0683 -4.64739 21.1758 -4.60893 22.2193 -5.00541C23.2628 -5.40189 24.2088 -6.20615 25.0575 -7.4182C25.9334 -8.66904 26.3791 -9.85253 26.3948 -10.9687C26.4173 -12.0946 26.0503 -12.9223 25.294 -13.4519C24.6541 -13.9 23.9525 -14.0227 23.1893 -13.8202C22.4328 -13.6273 21.5833 -13.095 20.6406 -12.2234L17.1723 -8.97281C15.2258 -7.14223 13.3643 -6.08305 11.5877 -5.79529C9.8014 -5.51431 8.09715 -5.94899 6.47494 -7.09932C5.09127 -8.05373 4.16 -9.26215 3.68116 -10.7246C3.19941 -12.2035 3.15745 -13.8152 3.55528 -15.5597C3.95021 -17.3207 4.77231 -19.0932 6.02157 -20.8774C7.85474 -23.4954 9.85505 -25.1655 12.0225 -25.8876C14.1968 -26.6195 16.3597 -26.4994 18.5114 -25.5275Z" fill="#A9A9A9" fill-opacity="0.24"/>
<path d="M542.092 646.474L528.503 658.411L528.59 658.617L546.613 657.124L548.311 661.125L525.222 662.57L523.316 658.078L540.398 642.483L542.092 646.474ZM548.546 677.029C549.364 676.573 549.867 675.905 550.055 675.022C550.247 674.146 550.113 673.169 549.656 672.09C549.334 671.332 548.943 670.73 548.484 670.284C548.025 669.839 547.538 669.556 547.024 669.434C546.509 669.313 545.999 669.356 545.493 669.563C545.074 669.741 544.752 669.99 544.525 670.31C544.301 670.636 544.152 671.012 544.078 671.437C544.01 671.859 543.99 672.304 544.019 672.77C544.047 673.236 544.099 673.696 544.176 674.15L544.505 676.233C544.65 677.066 544.721 677.896 544.717 678.723C544.716 679.557 544.605 680.349 544.383 681.099C544.164 681.855 543.8 682.534 543.292 683.136C542.783 683.738 542.094 684.223 541.225 684.592C540.048 685.092 538.884 685.231 537.733 685.009C536.589 684.785 535.523 684.211 534.537 683.287C533.56 682.367 532.73 681.103 532.048 679.495C531.384 677.932 531.05 676.473 531.046 675.117C531.044 673.768 531.37 672.572 532.023 671.531C532.68 670.496 533.664 669.67 534.975 669.051L536.495 672.631C535.817 672.98 535.327 673.443 535.024 674.019C534.72 674.595 534.584 675.236 534.613 675.941C534.645 676.653 534.822 677.388 535.144 678.146C535.479 678.937 535.891 679.58 536.379 680.075C536.876 680.574 537.41 680.903 537.979 681.063C538.555 681.219 539.132 681.179 539.71 680.941C540.23 680.713 540.596 680.376 540.809 679.931C541.027 679.483 541.136 678.939 541.135 678.3C541.142 677.664 541.085 676.947 540.963 676.15L540.581 673.616C540.304 671.781 540.393 670.2 540.848 668.873C541.313 667.549 542.264 666.582 543.702 665.972C544.886 665.47 546.058 665.35 547.219 665.613C548.383 665.883 549.446 666.47 550.408 667.373C551.376 668.273 552.159 669.427 552.756 670.832C553.361 672.257 553.642 673.611 553.6 674.895C553.568 676.181 553.244 677.318 552.629 678.304C552.02 679.288 551.155 680.03 550.032 680.529L548.546 677.029Z" fill="#A9A9A9" fill-opacity="0.24"/>
<path d="M283.622 264.199L286.672 262.904L293.474 278.928L290.424 280.223L287.789 274.015L270.755 281.246L269.223 277.637L286.257 270.407L283.622 264.199ZM284.968 290.189L276.142 293.935L274.635 290.386L294.719 281.86L296.192 285.332L288.612 288.55L288.687 288.726C289.686 288.718 290.588 288.98 291.392 289.511C292.205 290.045 292.856 290.887 293.345 292.038C293.789 293.084 293.957 294.089 293.849 295.053C293.741 296.017 293.356 296.89 292.693 297.673C292.033 298.463 291.094 299.116 289.878 299.632L280.288 303.703L278.781 300.153L287.822 296.315C288.836 295.885 289.513 295.289 289.853 294.527C290.202 293.769 290.179 292.923 289.782 291.988C289.515 291.36 289.139 290.856 288.654 290.476C288.178 290.1 287.625 289.879 286.996 289.814C286.369 289.756 285.693 289.881 284.968 290.189ZM283.36 311.785C282.954 310.83 282.759 309.899 282.775 308.989C282.799 308.084 283.054 307.266 283.539 306.536C284.026 305.812 284.763 305.24 285.751 304.821C286.6 304.46 287.37 304.319 288.059 304.397C288.748 304.475 289.374 304.714 289.938 305.116C290.501 305.517 291.013 306.021 291.471 306.629C291.939 307.24 292.368 307.896 292.757 308.594C293.223 309.438 293.609 310.119 293.914 310.638C294.225 311.154 294.512 311.503 294.775 311.685C295.046 311.87 295.352 311.891 295.692 311.747L295.751 311.722C296.49 311.408 296.969 310.946 297.188 310.336C297.408 309.726 297.342 309.009 296.993 308.185C296.624 307.316 296.141 306.707 295.546 306.358C294.953 306.015 294.361 305.865 293.769 305.908L292.833 302.394C293.859 302.267 294.807 302.373 295.677 302.714C296.554 303.052 297.33 303.59 298.006 304.329C298.689 305.066 299.254 305.96 299.701 307.013C300.009 307.738 300.231 308.497 300.366 309.288C300.501 310.079 300.499 310.856 300.359 311.617C300.226 312.376 299.902 313.077 299.388 313.719C298.877 314.368 298.121 314.905 297.121 315.33L287.039 319.609L285.591 316.196L287.66 315.318L287.61 315.2C287.1 315.162 286.579 315.025 286.046 314.788C285.523 314.555 285.025 314.191 284.553 313.697C284.09 313.207 283.693 312.569 283.36 311.785ZM286.359 311.599C286.662 312.312 287.065 312.87 287.568 313.274C288.077 313.675 288.627 313.916 289.217 313.997C289.81 314.085 290.384 314.011 290.94 313.775L292.715 313.022C292.576 312.949 292.411 312.796 292.219 312.561C292.029 312.333 291.836 312.068 291.638 311.766C291.441 311.464 291.251 311.163 291.069 310.862C290.887 310.561 290.73 310.3 290.598 310.078C290.301 309.579 289.982 309.155 289.641 308.806C289.3 308.457 288.931 308.224 288.534 308.107C288.144 307.987 287.72 308.024 287.262 308.219C286.608 308.496 286.216 308.944 286.085 309.563C285.954 310.182 286.046 310.861 286.359 311.599ZM306.81 324.306L304.064 325.472L300.389 316.813L303.135 315.647L306.81 324.306ZM307.651 316.253L309.158 319.803L295.017 325.806C294.539 326.008 294.204 326.236 294.01 326.488C293.825 326.743 293.739 327.012 293.75 327.292C293.761 327.573 293.829 327.861 293.954 328.155C294.048 328.377 294.151 328.573 294.261 328.742C294.374 328.918 294.465 329.049 294.532 329.136L292.011 330.912C291.865 330.75 291.678 330.51 291.45 330.19C291.224 329.877 290.998 329.471 290.771 328.973C290.368 328.095 290.162 327.238 290.154 326.4C290.152 325.56 290.376 324.797 290.826 324.112C291.279 323.434 291.977 322.898 292.921 322.505L307.651 316.253Z" fill="#A9A9A9" fill-opacity="0.24"/>
<path d="M351.016 877.64L348.013 876.24L355.37 860.463L358.373 861.863L355.523 867.975L372.294 875.796L370.637 879.349L353.866 871.528L351.016 877.64ZM369.43 859.25L378.12 863.302L376.49 866.797L356.716 857.576L358.31 854.158L365.774 857.639L365.855 857.465C365.18 856.727 364.771 855.882 364.627 854.929C364.48 853.968 364.671 852.92 365.199 851.787C365.679 850.757 366.314 849.96 367.102 849.395C367.891 848.83 368.797 848.532 369.823 848.501C370.851 848.463 371.964 848.724 373.161 849.282L382.604 853.685L380.974 857.18L372.072 853.029C371.075 852.564 370.179 852.46 369.385 852.717C368.588 852.964 367.975 853.548 367.546 854.468C367.258 855.086 367.135 855.703 367.177 856.318C367.216 856.924 367.422 857.482 367.795 857.993C368.171 858.498 368.716 858.917 369.43 859.25ZM384.266 850.122L369.435 843.207L371.065 839.712L385.896 846.627L384.266 850.122ZM368.15 840.468C367.892 841.022 367.486 841.412 366.933 841.64C366.374 841.865 365.833 841.856 365.312 841.613C364.784 841.367 364.43 840.959 364.249 840.389C364.062 839.816 364.097 839.252 364.355 838.699C364.616 838.139 365.025 837.749 365.582 837.531C366.135 837.303 366.675 837.312 367.203 837.558C367.724 837.801 368.079 838.209 368.266 838.783C368.45 839.346 368.411 839.908 368.15 840.468ZM382.127 826.224L380.989 829.572C380.625 829.512 380.249 829.529 379.861 829.622C379.475 829.709 379.109 829.898 378.761 830.191C378.413 830.483 378.113 830.9 377.861 831.44C377.522 832.168 377.394 832.853 377.478 833.495C377.566 834.132 377.862 834.564 378.367 834.791C378.795 834.999 379.22 835.005 379.64 834.809C380.063 834.607 380.538 834.17 381.063 833.498L382.783 831.22C383.74 829.958 384.706 829.139 385.68 828.763C386.658 828.38 387.679 828.433 388.745 828.922C389.675 829.364 390.371 830.021 390.834 830.895C391.292 831.76 391.499 832.761 391.454 833.9C391.409 835.039 391.098 836.226 390.522 837.462C389.676 839.277 388.614 840.561 387.339 841.314C386.056 842.064 384.683 842.227 383.22 841.803L384.481 838.242C385.222 838.399 385.881 838.307 386.456 837.964C387.031 837.621 387.506 837.047 387.882 836.242C388.269 835.412 388.409 834.666 388.302 834.005C388.198 833.338 387.895 832.887 387.393 832.653C386.968 832.454 386.541 832.455 386.111 832.654C385.684 832.847 385.237 833.25 384.771 833.863L383.06 836.145C382.101 837.43 381.111 838.25 380.092 838.605C379.065 838.957 378.013 838.878 376.935 838.367C376.018 837.947 375.342 837.33 374.906 836.516C374.467 835.692 374.275 834.744 374.328 833.672C374.378 832.59 374.679 831.457 375.231 830.273C376.042 828.535 377.05 827.34 378.255 826.687C379.464 826.028 380.754 825.874 382.127 826.224Z" fill="#A9A9A9" fill-opacity="0.24"/>
<path d="M96.016 113.64L93.0132 112.24L100.37 96.4633L103.373 97.8635L100.523 103.975L117.294 111.796L115.637 115.349L98.866 107.528L96.016 113.64ZM114.43 95.2498L123.12 99.3019L121.49 102.797L101.716 93.5763L103.31 90.1584L110.774 93.6387L110.855 93.4649C110.18 92.7271 109.771 91.8819 109.627 90.9295C109.48 89.9676 109.671 88.9202 110.199 87.7873C110.679 86.7574 111.314 85.96 112.102 85.3951C112.891 84.8302 113.797 84.5322 114.823 84.501C115.851 84.4634 116.964 84.7237 118.161 85.282L127.604 89.6852L125.974 93.1805L117.072 89.0293C116.075 88.5641 115.179 88.4599 114.385 88.7167C113.588 88.964 112.975 89.548 112.546 90.4684C112.258 91.0864 112.135 91.703 112.177 92.3182C112.216 92.9241 112.422 93.4824 112.795 93.9933C113.171 94.4978 113.716 94.9166 114.43 95.2498ZM129.266 86.1225L114.435 79.2069L116.065 75.7117L130.896 82.6272L129.266 86.1225ZM113.15 76.4681C112.892 77.0217 112.486 77.4125 111.933 77.6405C111.374 77.8655 110.833 77.8564 110.312 77.6133C109.784 77.3671 109.43 76.959 109.249 76.3888C109.062 75.8156 109.097 75.2523 109.355 74.6987C109.616 74.1387 110.025 73.7494 110.582 73.5309C111.135 73.3029 111.675 73.3119 112.203 73.5581C112.724 73.8012 113.079 74.2093 113.266 74.7825C113.45 75.3462 113.411 75.9081 113.15 76.4681ZM127.127 62.2239L125.989 65.5723C125.625 65.5123 125.249 65.5289 124.861 65.6222C124.475 65.7089 124.109 65.8985 123.761 66.1908C123.413 66.4831 123.113 66.8996 122.861 67.4403C122.522 68.1676 122.394 68.8527 122.478 69.4954C122.566 70.1317 122.862 70.5636 123.367 70.7913C123.795 70.9989 124.22 71.0047 124.64 70.809C125.063 70.6068 125.538 70.1696 126.063 69.4975L127.783 67.22C128.74 65.9578 129.706 65.1387 130.68 64.7625C131.658 64.3799 132.679 64.4331 133.745 64.9219C134.675 65.3635 135.371 66.0213 135.834 66.8952C136.292 67.7596 136.499 68.7612 136.454 69.8999C136.409 71.0387 136.098 72.226 135.522 73.4619C134.676 75.2771 133.614 76.5611 132.339 77.3141C131.056 78.064 129.683 78.2271 128.22 77.8032L129.481 74.2418C130.222 74.3994 130.881 74.3068 131.456 73.9638C132.031 73.6208 132.506 73.047 132.882 72.2424C133.269 71.412 133.409 70.6663 133.302 70.0051C133.198 69.3375 132.895 68.8867 132.393 68.6526C131.968 68.4545 131.541 68.455 131.111 68.6542C130.684 68.847 130.237 69.25 129.771 69.8633L128.06 72.1454C127.101 73.4298 126.111 74.2496 125.092 74.6048C124.065 74.9569 123.013 74.8776 121.935 74.3669C121.018 73.9471 120.342 73.3301 119.906 72.5159C119.467 71.6922 119.275 70.7443 119.328 69.672C119.378 68.5903 119.679 67.4573 120.231 66.2729C121.042 64.535 122.05 63.3397 123.255 62.6872C124.464 62.0282 125.754 61.8738 127.127 62.2239Z" fill="#A9A9A9" fill-opacity="0.24"/>
<path d="M389.857 1.78222L360.338 -4.33299L360.151 -4.01008L380.216 18.4815L376.594 24.7553L351.512 -4.52866L355.578 -11.5713L393.47 -4.47617L389.857 1.78222ZM355.661 41.0194C357.086 41.6512 358.481 41.6501 359.845 41.016C361.203 40.3922 362.37 39.2346 363.347 37.5431C364.033 36.354 364.443 35.2304 364.575 34.1724C364.708 33.1144 364.597 32.1823 364.242 31.3761C363.887 30.5699 363.318 29.9339 362.535 29.4679C361.879 29.0891 361.224 28.9093 360.571 28.9284C359.911 28.9577 359.261 29.1362 358.621 29.4637C357.991 29.7971 357.38 30.2165 356.788 30.7219C356.195 31.2272 355.636 31.7584 355.109 32.3155L352.666 34.8417C351.703 35.8711 350.669 36.798 349.564 37.6227C348.453 38.4576 347.288 39.1035 346.067 39.5606C344.84 40.0279 343.572 40.2249 342.261 40.1515C340.95 40.0781 339.613 39.6478 338.25 38.8607C336.404 37.7953 335.052 36.3857 334.192 34.6317C333.342 32.8837 333.038 30.8899 333.278 28.6505C333.523 26.4272 334.373 24.0547 335.829 21.5329C337.244 19.0828 338.851 17.1747 340.652 15.8084C342.446 14.4524 344.364 13.6872 346.405 13.5128C348.441 13.3486 350.528 13.8292 352.667 14.9546L349.427 20.5671C348.282 20.0158 347.175 19.8274 346.104 20.0017C345.032 20.1761 344.042 20.6364 343.133 21.3826C342.218 22.1391 341.417 23.1119 340.73 24.301C340.014 25.5414 339.571 26.7346 339.402 27.8805C339.237 29.0426 339.333 30.0825 339.692 31.0003C340.061 31.924 340.693 32.6514 341.589 33.1825C342.416 33.6457 343.231 33.7954 344.036 33.6316C344.852 33.4738 345.685 33.073 346.535 32.4293C347.389 31.8017 348.285 31.007 349.224 30.0451L352.215 26.995C354.378 24.7861 356.572 23.3188 358.795 22.5931C361.023 21.8836 363.264 22.1799 365.519 23.482C367.375 24.5533 368.71 25.9937 369.524 27.8032C370.332 29.623 370.617 31.6262 370.38 33.8128C370.153 36.0053 369.403 38.2036 368.131 40.4076C366.841 42.6424 365.321 44.3755 363.571 45.6069C361.825 46.8544 359.988 47.5635 358.058 47.734C356.138 47.9105 354.282 47.5021 352.491 46.5089L355.661 41.0194Z" fill="#A9A9A9" fill-opacity="0.24"/>
<path d="M493.483 152.513L496.333 148.441L517.722 163.418L514.872 167.489L506.586 161.688L490.665 184.425L485.848 181.052L501.769 158.314L493.483 152.513ZM515.853 184.505L507.603 196.286L502.865 192.968L521.636 166.159L526.27 169.404L519.185 179.522L519.421 179.687C520.686 178.883 522.041 178.499 523.486 178.535C524.945 178.568 526.443 179.122 527.979 180.198C529.375 181.176 530.388 182.32 531.017 183.632C531.646 184.944 531.85 186.361 531.629 187.884C531.416 189.413 530.742 190.989 529.605 192.613L520.641 205.415L515.903 202.097L524.353 190.028C525.301 188.675 525.688 187.379 525.515 186.14C525.357 184.898 524.655 183.84 523.407 182.966C522.569 182.379 521.69 182.037 520.77 181.939C519.865 181.839 518.987 181.998 518.135 182.415C517.292 182.84 516.531 183.536 515.853 184.505ZM525.472 208.797L539.55 188.691L544.289 192.009L530.21 212.115L525.472 208.797ZM543.931 187.505C543.18 186.98 542.709 186.279 542.516 185.402C542.329 184.517 542.483 183.721 542.978 183.015C543.479 182.299 544.175 181.882 545.064 181.763C545.959 181.636 546.782 181.835 547.533 182.361C548.292 182.892 548.761 183.598 548.939 184.476C549.131 185.353 548.977 186.149 548.476 186.864C547.981 187.571 547.286 187.988 546.391 188.115C545.51 188.24 544.69 188.037 543.931 187.505ZM561.332 211.862L556.682 209.309C556.865 208.787 556.939 208.227 556.902 207.629C556.874 207.038 556.69 206.447 556.349 205.857C556.008 205.267 555.47 204.715 554.737 204.202C553.751 203.511 552.772 203.145 551.801 203.102C550.838 203.065 550.123 203.39 549.655 204.077C549.237 204.655 549.118 205.281 549.298 205.953C549.486 206.631 550.008 207.445 550.864 208.396L553.781 211.53C555.396 213.272 556.354 214.912 556.656 216.45C556.967 217.994 556.622 219.489 555.623 220.935C554.728 222.195 553.575 223.052 552.164 223.507C550.767 223.96 549.234 224.005 547.563 223.641C545.893 223.278 544.22 222.51 542.544 221.337C540.083 219.614 538.463 217.712 537.683 215.631C536.909 213.541 537.026 211.471 538.033 209.419L542.966 212.209C542.54 213.264 542.505 214.26 542.862 215.199C543.219 216.139 543.943 216.99 545.033 217.754C546.159 218.542 547.224 218.943 548.229 218.957C549.242 218.978 549.987 218.647 550.464 217.967C550.867 217.391 550.978 216.759 550.795 216.072C550.622 215.392 550.143 214.627 549.358 213.779L546.433 210.657C544.785 208.905 543.832 207.23 543.573 205.631C543.32 204.023 543.711 202.49 544.746 201.03C545.605 199.784 546.693 198.946 548.009 198.515C549.34 198.082 550.791 198.044 552.361 198.402C553.946 198.757 555.541 199.497 557.147 200.622C559.503 202.271 561.006 204.072 561.656 206.022C562.315 207.979 562.207 209.926 561.332 211.862ZM598.007 239.611C595.985 242.499 593.711 244.595 591.187 245.896C588.678 247.196 586.112 247.74 583.489 247.529C580.875 247.325 578.395 246.4 576.047 244.757C573.7 243.113 571.978 241.095 570.883 238.702C569.803 236.307 569.44 233.706 569.794 230.897C570.163 228.086 571.355 225.241 573.372 222.361C575.394 219.472 577.66 217.378 580.17 216.079C582.694 214.777 585.263 214.229 587.877 214.433C590.499 214.644 592.985 215.571 595.332 217.215C597.68 218.859 599.396 220.874 600.483 223.26C601.578 225.652 601.941 228.254 601.572 231.065C601.218 233.874 600.03 236.722 598.007 239.611ZM593.125 236.192C594.549 234.159 595.431 232.221 595.771 230.379C596.127 228.534 595.997 226.862 595.381 225.364C594.771 223.858 593.737 222.595 592.28 221.574C590.822 220.554 589.282 220.014 587.657 219.957C586.039 219.89 584.42 220.336 582.799 221.295C581.193 222.252 579.678 223.746 578.254 225.78C576.831 227.813 575.941 229.752 575.586 231.597C575.245 233.439 575.38 235.114 575.989 236.62C576.605 238.118 577.642 239.377 579.099 240.398C580.557 241.418 582.094 241.962 583.713 242.028C585.337 242.086 586.952 241.637 588.558 240.68C590.179 239.722 591.701 238.225 593.125 236.192ZM593.213 256.23L611.985 229.421L622.038 236.461C624.097 237.903 625.575 239.471 626.47 241.164C627.374 242.863 627.731 244.609 627.543 246.402C627.369 248.192 626.683 249.942 625.485 251.653C624.282 253.372 622.87 254.607 621.251 255.36C619.647 256.109 617.896 256.333 616 256.033C614.11 255.724 612.135 254.848 610.075 253.406L602.915 248.392L605.738 244.361L612.244 248.916C613.448 249.759 614.55 250.284 615.55 250.49C616.557 250.687 617.469 250.592 618.288 250.202C619.121 249.811 619.871 249.139 620.537 248.188C621.203 247.237 621.584 246.294 621.679 245.359C621.781 244.416 621.569 243.5 621.046 242.614C620.529 241.718 619.663 240.846 618.45 239.996L614 236.88L598.069 259.631L593.213 256.23ZM615.568 253.78L613.699 270.575L608.28 266.78L610.267 250.068L615.568 253.78ZM641.074 255.857L643.925 251.786L665.314 266.763L662.463 270.834L654.177 265.032L638.256 287.77L633.439 284.397L649.36 261.659L641.074 255.857ZM663.444 287.849L655.195 299.63L650.456 296.312L669.228 269.504L673.862 272.748L666.777 282.867L667.012 283.032C668.278 282.227 669.633 281.843 671.077 281.879C672.536 281.913 674.034 282.467 675.57 283.542C676.966 284.52 677.979 285.665 678.608 286.977C679.237 288.289 679.441 289.706 679.22 291.229C679.008 292.758 678.333 294.334 677.197 295.957L668.233 308.759L663.494 305.441L671.945 293.372C672.892 292.02 673.279 290.724 673.107 289.484C672.949 288.242 672.246 287.184 670.998 286.311C670.16 285.724 669.281 285.382 668.362 285.284C667.457 285.183 666.578 285.342 665.726 285.76C664.883 286.184 664.122 286.88 663.444 287.849ZM678.565 316.599C677.29 315.707 676.302 314.676 675.598 313.507C674.91 312.336 674.584 311.093 674.62 309.779C674.664 308.471 675.148 307.158 676.071 305.84C676.865 304.705 677.732 303.914 678.67 303.465C679.608 303.017 680.595 302.824 681.631 302.886C682.667 302.948 683.718 303.183 684.785 303.592C685.866 303.998 686.932 304.491 687.983 305.07C689.246 305.773 690.278 306.333 691.079 306.75C691.885 307.159 692.527 307.375 693.006 307.397C693.499 307.418 693.904 307.201 694.222 306.747L694.277 306.668C694.967 305.682 695.21 304.714 695.004 303.764C694.798 302.813 694.145 301.953 693.046 301.183C691.885 300.37 690.787 299.979 689.752 300.008C688.726 300.044 687.853 300.324 687.135 300.848L683.151 297.122C684.355 296.145 685.646 295.527 687.023 295.269C688.407 295.002 689.822 295.07 691.27 295.472C692.724 295.866 694.154 296.555 695.559 297.539C696.527 298.217 697.412 299.006 698.213 299.905C699.014 300.804 699.629 301.793 700.056 302.873C700.49 303.944 700.635 305.092 700.492 306.318C700.357 307.551 699.822 308.834 698.887 310.17L689.465 323.626L684.909 320.437L686.843 317.675L686.686 317.565C686.007 317.922 685.235 318.161 684.369 318.283C683.518 318.402 682.596 318.336 681.603 318.082C680.625 317.826 679.612 317.332 678.565 316.599ZM682.233 313.978C683.184 314.644 684.14 315.034 685.101 315.148C686.068 315.253 686.959 315.122 687.775 314.757C688.599 314.397 689.27 313.847 689.79 313.105L691.449 310.736C691.215 310.754 690.882 310.69 690.451 310.544C690.029 310.405 689.572 310.221 689.081 309.994C688.589 309.767 688.108 309.535 687.638 309.296C687.168 309.058 686.76 308.851 686.415 308.674C685.641 308.275 684.899 307.989 684.187 307.816C683.476 307.644 682.821 307.64 682.224 307.807C681.632 307.965 681.122 308.349 680.694 308.96C680.083 309.833 679.94 310.715 680.266 311.606C680.591 312.497 681.247 313.288 682.233 313.978ZM718.348 313.886L715.782 317.552L704.223 309.458L706.79 305.793L718.348 313.886ZM713.017 302.974L717.755 306.292L704.538 325.168C704.092 325.805 703.846 326.361 703.799 326.836C703.768 327.308 703.871 327.718 704.108 328.066C704.346 328.415 704.661 328.726 705.053 329.001C705.35 329.209 705.636 329.377 705.911 329.504C706.194 329.638 706.414 329.733 706.569 329.79L704.774 334.053C704.46 333.963 704.03 333.806 703.486 333.58C702.95 333.361 702.34 333.025 701.656 332.572C700.444 331.776 699.501 330.849 698.824 329.79C698.154 328.722 697.833 327.574 697.861 326.345C697.898 325.123 698.361 323.886 699.249 322.635L713.017 302.974Z" fill="#A9A9A9" fill-opacity="0.24"/>
</svg>
