<svg width="24" height="29" viewBox="0 0 24 29" fill="none" xmlns="http://www.w3.org/2000/svg">
<path d="M9.27857 0.768946C8.11188 1.61187 0.333374 7.59683 0.333374 17.3327C0.333374 18.8648 0.635141 20.3819 1.22145 21.7974C1.80775 23.2128 2.66711 24.499 3.75046 25.5823C4.83381 26.6657 6.11993 27.525 7.5354 28.1113C8.90996 28.6807 10.3804 28.9817 11.8673 28.9986C8.24665 28.9279 5.33337 25.9708 5.33337 22.3333C5.33337 22.0041 5.35724 21.6804 5.40332 21.364C5.40529 21.3452 5.40768 21.3263 5.4105 21.3073C5.96953 17.551 9.42553 14.3619 11.0968 13.017C11.6309 12.5872 12.3694 12.5872 12.9035 13.017C14.5747 14.3619 18.0306 17.551 18.5896 21.3073C18.5924 21.3263 18.5948 21.3452 18.5968 21.3641C18.6428 21.6805 18.6667 22.0041 18.6667 22.3333C18.6667 25.9708 15.7534 28.9279 12.1328 28.9986C13.6197 28.9817 15.0901 28.6807 16.4647 28.1113C17.8801 27.525 19.1663 26.6657 20.2496 25.5823C21.333 24.499 22.1923 23.2128 22.7786 21.7974C23.3451 20.4299 23.6459 18.9675 23.6657 17.4884C23.6664 17.4693 23.6667 17.4501 23.6667 17.4308L23.6666 17.378L23.6667 17.3329C23.6227 10.2651 18.8406 6.40775 17.9689 5.76309C17.8872 5.70266 17.7786 5.70335 17.6968 5.76379C17.3473 6.02237 16.3735 6.79407 15.3279 8.0789C15.2086 8.22543 14.9742 8.19742 14.8935 8.0266C12.9289 3.869 10.2072 1.34551 9.56431 0.785111C9.48136 0.712812 9.36776 0.704507 9.27857 0.768946Z" fill="#CE6F00"/>
</svg>
