<svg width="476" height="180" viewBox="0 0 476 180" fill="none" xmlns="http://www.w3.org/2000/svg">
<path d="M104.085 161H90.9034L110.989 102.818H126.841L146.898 161H133.716L119.142 116.114H118.688L104.085 161ZM103.261 138.131H134.398V147.733H103.261V138.131ZM221.081 102.818V161H210.456L185.143 124.381H184.717V161H172.416V102.818H183.212L208.325 139.409H208.837V102.818H221.081ZM262.061 102.818V161H249.76V102.818H262.061ZM290.697 161V102.818H302.999V126.824H327.97V102.818H340.243V161H327.97V136.966H302.999V161H290.697ZM422.232 112.96V102.818H470.016V112.96H452.203V161H440.044V112.96H422.232Z" fill="#F5F5F5"/>
<path d="M15.4304 66L1.27983 16.5455H12.7017L20.8878 50.9077H21.2983L30.3295 16.5455H40.1094L49.1165 50.9801H49.5511L57.7372 16.5455H69.1591L55.0085 66H44.8182L35.4006 33.6662H35.0142L25.6207 66H15.4304ZM87.4812 66.7244C83.6658 66.7244 80.3817 65.9517 77.6289 64.4062C74.8922 62.8447 72.7833 60.6392 71.3022 57.7898C69.8211 54.9242 69.0806 51.5355 69.0806 47.6236C69.0806 43.8082 69.8211 40.4598 71.3022 37.5781C72.7833 34.6965 74.868 32.4508 77.5565 30.8409C80.261 29.2311 83.4324 28.4261 87.0707 28.4261C89.5176 28.4261 91.7956 28.8205 93.9045 29.6094C96.0295 30.3821 97.8808 31.5492 99.4585 33.1108C101.052 34.6723 102.292 36.6364 103.177 39.0028C104.063 41.3532 104.505 44.1061 104.505 47.2614V50.0866H73.1857V43.7116H94.8221C94.8221 42.2306 94.5001 40.9186 93.8562 39.7756C93.2122 38.6326 92.3188 37.7391 91.1758 37.0952C90.0489 36.4351 88.7369 36.1051 87.2397 36.1051C85.6781 36.1051 84.2937 36.4673 83.0863 37.1918C81.895 37.9001 80.9613 38.858 80.2852 40.0653C79.609 41.2566 79.2629 42.5848 79.2468 44.0497V50.1108C79.2468 51.946 79.5849 53.5317 80.261 54.8679C80.9532 56.2041 81.9272 57.2344 83.1829 57.9588C84.4386 58.6832 85.9277 59.0455 87.6502 59.0455C88.7932 59.0455 89.8396 58.8845 90.7894 58.5625C91.7392 58.2405 92.5522 57.7576 93.2283 57.1136C93.9045 56.4697 94.4196 55.6809 94.7738 54.7472L104.288 55.375C103.805 57.661 102.815 59.6572 101.318 61.3636C99.8368 63.054 97.921 64.3741 95.5707 65.3239C93.2364 66.2576 90.5399 66.7244 87.4812 66.7244ZM121.505 16.5455V66H111.218V16.5455H121.505ZM146.504 66.7244C142.705 66.7244 139.437 65.9195 136.7 64.3097C133.98 62.6837 131.887 60.4299 130.422 57.5483C128.973 54.6667 128.249 51.3504 128.249 47.5994C128.249 43.8002 128.981 40.4678 130.446 37.6023C131.927 34.7206 134.028 32.4749 136.749 30.8651C139.469 29.2391 142.705 28.4261 146.456 28.4261C149.692 28.4261 152.525 29.0137 154.956 30.1889C157.387 31.3641 159.311 33.0142 160.727 35.1392C162.144 37.2642 162.925 39.7595 163.07 42.625H153.362C153.089 40.7737 152.364 39.2846 151.189 38.1577C150.03 37.0147 148.509 36.4432 146.625 36.4432C145.031 36.4432 143.639 36.8778 142.447 37.7472C141.272 38.6004 140.355 39.848 139.695 41.4901C139.035 43.1321 138.705 45.1203 138.705 47.4545C138.705 49.821 139.027 51.8333 139.67 53.4915C140.33 55.1496 141.256 56.4134 142.447 57.2827C143.639 58.152 145.031 58.5866 146.625 58.5866C147.8 58.5866 148.855 58.3452 149.788 57.8622C150.738 57.3793 151.519 56.679 152.131 55.7614C152.759 54.8277 153.169 53.7088 153.362 52.4048H163.07C162.909 55.2382 162.136 57.7334 160.751 59.8906C159.383 62.0317 157.491 63.706 155.077 64.9134C152.662 66.1207 149.804 66.7244 146.504 66.7244ZM186.414 66.7244C182.663 66.7244 179.42 65.9276 176.683 64.3338C173.962 62.724 171.861 60.4863 170.38 57.6207C168.899 54.7391 168.159 51.3987 168.159 47.5994C168.159 43.768 168.899 40.4195 170.38 37.554C171.861 34.6723 173.962 32.4347 176.683 30.8409C179.42 29.2311 182.663 28.4261 186.414 28.4261C190.165 28.4261 193.401 29.2311 196.122 30.8409C198.859 32.4347 200.967 34.6723 202.449 37.554C203.93 40.4195 204.67 43.768 204.67 47.5994C204.67 51.3987 203.93 54.7391 202.449 57.6207C200.967 60.4863 198.859 62.724 196.122 64.3338C193.401 65.9276 190.165 66.7244 186.414 66.7244ZM186.463 58.7557C188.169 58.7557 189.594 58.2727 190.737 57.3068C191.88 56.3248 192.741 54.9886 193.321 53.2983C193.916 51.608 194.214 49.6842 194.214 47.527C194.214 45.3698 193.916 43.446 193.321 41.7557C192.741 40.0653 191.88 38.7292 190.737 37.7472C189.594 36.7652 188.169 36.2741 186.463 36.2741C184.74 36.2741 183.291 36.7652 182.116 37.7472C180.957 38.7292 180.08 40.0653 179.484 41.7557C178.904 43.446 178.615 45.3698 178.615 47.527C178.615 49.6842 178.904 51.608 179.484 53.2983C180.08 54.9886 180.957 56.3248 182.116 57.3068C183.291 58.2727 184.74 58.7557 186.463 58.7557ZM211.359 66V28.9091H221.163V35.4531H221.598C222.37 33.2798 223.658 31.5653 225.461 30.3097C227.264 29.054 229.422 28.4261 231.933 28.4261C234.476 28.4261 236.642 29.062 238.429 30.3338C240.216 31.5895 241.407 33.2959 242.002 35.4531H242.389C243.145 33.3281 244.514 31.6297 246.494 30.358C248.49 29.0701 250.849 28.4261 253.569 28.4261C257.03 28.4261 259.84 29.5289 261.997 31.7344C264.17 33.9238 265.257 37.0308 265.257 41.0554V66H254.994V43.0838C254.994 41.0232 254.447 39.4777 253.352 38.4474C252.257 37.4171 250.889 36.902 249.247 36.902C247.379 36.902 245.922 37.4976 244.876 38.6889C243.83 39.8641 243.306 41.4176 243.306 43.3494V66H233.333V42.8665C233.333 41.0473 232.81 39.5985 231.764 38.5199C230.734 37.4413 229.373 36.902 227.683 36.902C226.54 36.902 225.51 37.1918 224.592 37.7713C223.69 38.3348 222.974 39.1316 222.443 40.1619C221.912 41.1761 221.646 42.3674 221.646 43.7358V66H211.359ZM290.286 66.7244C286.471 66.7244 283.186 65.9517 280.434 64.4062C277.697 62.8447 275.588 60.6392 274.107 57.7898C272.626 54.9242 271.885 51.5355 271.885 47.6236C271.885 43.8082 272.626 40.4598 274.107 37.5781C275.588 34.6965 277.673 32.4508 280.361 30.8409C283.066 29.2311 286.237 28.4261 289.875 28.4261C292.322 28.4261 294.6 28.8205 296.709 29.6094C298.834 30.3821 300.685 31.5492 302.263 33.1108C303.857 34.6723 305.096 36.6364 305.982 39.0028C306.867 41.3532 307.31 44.1061 307.31 47.2614V50.0866H275.99V43.7116H297.627C297.627 42.2306 297.305 40.9186 296.661 39.7756C296.017 38.6326 295.123 37.7391 293.98 37.0952C292.854 36.4351 291.542 36.1051 290.044 36.1051C288.483 36.1051 287.098 36.4673 285.891 37.1918C284.7 37.9001 283.766 38.858 283.09 40.0653C282.414 41.2566 282.068 42.5848 282.051 44.0497V50.1108C282.051 51.946 282.39 53.5317 283.066 54.8679C283.758 56.2041 284.732 57.2344 285.988 57.9588C287.243 58.6832 288.732 59.0455 290.455 59.0455C291.598 59.0455 292.644 58.8845 293.594 58.5625C294.544 58.2405 295.357 57.7576 296.033 57.1136C296.709 56.4697 297.224 55.6809 297.578 54.7472L307.093 55.375C306.61 57.661 305.62 59.6572 304.123 61.3636C302.641 63.054 300.726 64.3741 298.375 65.3239C296.041 66.2576 293.345 66.7244 290.286 66.7244Z" fill="#F5F5F5"/>
<path d="M359.097 38.7273V44.4091H342.673V38.7273H359.097ZM346.402 32.1932H353.966V57.6193C353.966 58.3177 354.072 58.8622 354.285 59.2528C354.498 59.6316 354.794 59.898 355.173 60.0518C355.564 60.2057 356.014 60.2827 356.523 60.2827C356.878 60.2827 357.233 60.2531 357.588 60.1939C357.943 60.1229 358.215 60.0696 358.405 60.0341L359.594 65.6626C359.215 65.781 358.683 65.9171 357.996 66.071C357.31 66.2367 356.475 66.3374 355.493 66.3729C353.67 66.4439 352.072 66.2012 350.699 65.6449C349.337 65.0885 348.278 64.2244 347.52 63.0526C346.763 61.8807 346.39 60.401 346.402 58.6136V32.1932ZM376.054 66.5327C373.296 66.5327 370.911 65.9467 368.898 64.7749C366.898 63.5911 365.353 61.9458 364.264 59.8388C363.175 57.7199 362.631 55.2637 362.631 52.4702C362.631 49.6529 363.175 47.1908 364.264 45.0838C365.353 42.965 366.898 41.3196 368.898 40.1477C370.911 38.964 373.296 38.3722 376.054 38.3722C378.812 38.3722 381.191 38.964 383.192 40.1477C385.204 41.3196 386.755 42.965 387.844 45.0838C388.933 47.1908 389.477 49.6529 389.477 52.4702C389.477 55.2637 388.933 57.7199 387.844 59.8388C386.755 61.9458 385.204 63.5911 383.192 64.7749C381.191 65.9467 378.812 66.5327 376.054 66.5327ZM376.089 60.6733C377.344 60.6733 378.392 60.3182 379.232 59.608C380.073 58.8859 380.706 57.9034 381.132 56.6605C381.57 55.4176 381.789 54.0031 381.789 52.4169C381.789 50.8307 381.57 49.4162 381.132 48.1733C380.706 46.9304 380.073 45.9479 379.232 45.2259C378.392 44.5038 377.344 44.1428 376.089 44.1428C374.823 44.1428 373.757 44.5038 372.893 45.2259C372.041 45.9479 371.396 46.9304 370.958 48.1733C370.532 49.4162 370.319 50.8307 370.319 52.4169C370.319 54.0031 370.532 55.4176 370.958 56.6605C371.396 57.9034 372.041 58.8859 372.893 59.608C373.757 60.3182 374.823 60.6733 376.089 60.6733Z" fill="#F5F5F5"/>
<path d="M0 80H476V85H0V80Z" fill="#E3E3E3"/>
<path d="M377.627 100.23C375.002 102.127 357.5 115.593 357.5 137.498C357.5 140.946 358.179 144.359 359.498 147.544C360.817 150.729 362.751 153.622 365.188 156.06C367.626 158.498 370.52 160.431 373.705 161.75C376.797 163.031 380.106 163.709 383.451 163.747C375.305 163.588 368.75 156.934 368.75 148.75C368.75 148.009 368.804 147.281 368.907 146.569C368.912 146.526 368.917 146.484 368.924 146.441C370.181 137.989 377.957 130.814 381.718 127.788C382.919 126.821 384.581 126.821 385.783 127.788C389.543 130.814 397.319 137.99 398.576 146.441C398.583 146.484 398.588 146.527 398.593 146.569C398.696 147.281 398.75 148.009 398.75 148.75C398.75 156.934 392.195 163.588 384.049 163.747C387.394 163.709 390.703 163.031 393.795 161.75C396.98 160.431 399.874 158.498 402.312 156.06C404.749 153.622 406.683 150.729 408.002 147.544C409.276 144.467 409.953 141.177 409.998 137.849C409.999 137.806 410 137.762 410 137.719L410 137.6L410 137.499C409.901 121.596 399.141 112.917 397.18 111.467C396.996 111.331 396.752 111.332 396.568 111.468C395.781 112.05 393.59 113.786 391.238 116.677C390.969 117.007 390.442 116.944 390.26 116.56C385.84 107.205 379.716 101.527 378.27 100.266C378.083 100.104 377.827 100.085 377.627 100.23Z" fill="#CE6F00"/>
</svg>
